<mxfile host="app.diagrams.net" agent="Mozilla/5.0 (Windows NT 10.0; Win64; x64) AppleWebKit/537.36 (KHTML, like Gecko) Chrome/139.0.0.0 Safari/537.36" version="28.2.0">
  <diagram id="AobBYWUveplGQyxNpJyB" name="Page-1">
    <mxGraphModel dx="1997" dy="1217" grid="1" gridSize="10" guides="1" tooltips="1" connect="1" arrows="1" fold="1" page="1" pageScale="1" pageWidth="1600" pageHeight="900" math="0" shadow="0">
      <root>
        <mxCell id="0" />
        <mxCell id="1" parent="0" />
        <mxCell id="YqXj83OMCXvcWO0IUHI8-39" style="edgeStyle=orthogonalEdgeStyle;rounded=0;orthogonalLoop=1;jettySize=auto;html=1;exitX=1;exitY=0.5;exitDx=0;exitDy=0;deletable=0;" edge="1" parent="1" source="2">
          <mxGeometry relative="1" as="geometry">
            <mxPoint x="480" y="206.55555555555543" as="targetPoint" />
          </mxGeometry>
        </mxCell>
        <mxCell id="2" value="Start" style="whiteSpace=wrap;strokeWidth=2;fillColor=#d5e8d4;strokeColor=#82b366;movable=1;resizable=1;rotatable=1;deletable=0;editable=1;locked=0;connectable=1;" parent="1" vertex="1">
          <mxGeometry x="340" y="180" width="95" height="54" as="geometry" />
        </mxCell>
        <mxCell id="7" value="End" style="whiteSpace=wrap;strokeWidth=2;fillColor=#f8cecc;strokeColor=#b85450;movable=1;resizable=1;rotatable=1;deletable=0;editable=1;locked=0;connectable=1;" parent="1" vertex="1">
          <mxGeometry x="1290" y="160" width="86" height="54" as="geometry" />
        </mxCell>
        <mxCell id="9mpWrN2o6Q3EJShL9JNw-14" value="&lt;font style=&quot;font-size: 46px;&quot;&gt;Goal: Set Variable to 3&lt;/font&gt;" style="text;html=1;align=center;verticalAlign=middle;whiteSpace=wrap;rounded=0;movable=0;resizable=0;rotatable=0;deletable=0;editable=0;locked=1;connectable=0;" parent="1" vertex="1">
          <mxGeometry x="280" y="20" width="820" height="120" as="geometry" />
        </mxCell>
        <mxCell id="YqXj83OMCXvcWO0IUHI8-38" value="Step Library" style="swimlane;horizontal=0;whiteSpace=wrap;html=1;movable=1;resizable=1;rotatable=1;deletable=0;editable=1;locked=0;connectable=1;" vertex="1" parent="1">
          <mxGeometry width="300" height="850" as="geometry" />
        </mxCell>
        <mxCell id="YqXj83OMCXvcWO0IUHI8-105" value="Create Data" style="swimlane;fontStyle=1;childLayout=stackLayout;horizontal=1;startSize=30;horizontalStack=0;resizeParent=1;resizeParentMax=0;resizeLast=0;collapsible=1;marginBottom=0;whiteSpace=wrap;html=1;fillColor=#dae8fc;strokeColor=#6c8ebf;fontSize=18;dropTarget=1;resizable=0;rotatable=0;deletable=0;" vertex="1" parent="YqXj83OMCXvcWO0IUHI8-38">
          <mxGeometry x="40" y="30" width="240" height="110" as="geometry" />
        </mxCell>
        <mxCell id="YqXj83OMCXvcWO0IUHI8-106" value="" style="group;allowArrows=0;connectable=0;editable=1;movable=0;resizable=0;rotatable=0;deletable=0;locked=0;movableLabel=0;expand=1;" vertex="1" connectable="0" parent="YqXj83OMCXvcWO0IUHI8-105">
          <mxGeometry y="30" width="240" height="40" as="geometry" />
        </mxCell>
        <mxCell id="YqXj83OMCXvcWO0IUHI8-107" value="" style="rounded=0;whiteSpace=wrap;html=1;fillColor=#f5f5f5;fontColor=#333333;strokeColor=#666666;allowArrows=0;connectable=0;editable=1;movable=0;resizable=0;rotatable=0;deletable=0;locked=0;movableLabel=0;expand=1;" vertex="1" parent="YqXj83OMCXvcWO0IUHI8-106">
          <mxGeometry width="240" height="40" as="geometry" />
        </mxCell>
        <mxCell id="YqXj83OMCXvcWO0IUHI8-108" value="Variable Name" style="text;html=1;align=left;verticalAlign=middle;whiteSpace=wrap;rounded=0;fontSize=14;allowArrows=0;connectable=0;editable=1;movable=0;resizable=0;rotatable=0;deletable=0;locked=0;movableLabel=0;expand=1;" vertex="1" parent="YqXj83OMCXvcWO0IUHI8-106">
          <mxGeometry x="10" y="5" width="100" height="30" as="geometry" />
        </mxCell>
        <mxCell id="YqXj83OMCXvcWO0IUHI8-109" value="TestVar" style="rounded=0;whiteSpace=wrap;html=1;allowArrows=0;connectable=0;editable=0;movable=0;resizable=0;rotatable=0;deletable=0;locked=0;movableLabel=0;expand=1;fillColor=#f5f5f5;fontColor=#333333;strokeColor=#666666;" vertex="1" parent="YqXj83OMCXvcWO0IUHI8-106">
          <mxGeometry x="115" y="5" width="120" height="30" as="geometry" />
        </mxCell>
        <mxCell id="YqXj83OMCXvcWO0IUHI8-110" value="" style="group;allowArrows=0;connectable=0;editable=1;movable=0;resizable=0;rotatable=0;deletable=0;locked=0;movableLabel=0;expand=1;fillColor=#f5f5f5;fontColor=#333333;strokeColor=#666666;" vertex="1" connectable="0" parent="YqXj83OMCXvcWO0IUHI8-105">
          <mxGeometry y="70" width="240" height="40" as="geometry" />
        </mxCell>
        <mxCell id="YqXj83OMCXvcWO0IUHI8-111" value="" style="rounded=0;whiteSpace=wrap;html=1;fillColor=#f5f5f5;fontColor=#333333;strokeColor=#666666;allowArrows=0;connectable=0;editable=1;movable=0;resizable=0;rotatable=0;deletable=0;locked=0;movableLabel=0;expand=1;" vertex="1" parent="YqXj83OMCXvcWO0IUHI8-110">
          <mxGeometry width="240" height="40" as="geometry" />
        </mxCell>
        <mxCell id="YqXj83OMCXvcWO0IUHI8-112" value="Initial Value" style="text;html=1;align=left;verticalAlign=middle;whiteSpace=wrap;rounded=0;fontSize=14;allowArrows=0;connectable=0;editable=1;movable=0;resizable=0;rotatable=0;deletable=0;locked=0;movableLabel=0;expand=1;" vertex="1" parent="YqXj83OMCXvcWO0IUHI8-110">
          <mxGeometry x="10" y="5" width="100" height="30" as="geometry" />
        </mxCell>
        <mxCell id="YqXj83OMCXvcWO0IUHI8-113" value="0" style="rounded=0;whiteSpace=wrap;html=1;allowArrows=0;connectable=0;editable=0;movable=0;resizable=0;rotatable=0;deletable=0;locked=0;movableLabel=0;expand=1;fillColor=#f5f5f5;fontColor=#333333;strokeColor=#666666;" vertex="1" parent="YqXj83OMCXvcWO0IUHI8-110">
          <mxGeometry x="115" y="5" width="120" height="30" as="geometry" />
        </mxCell>
        <mxCell id="YqXj83OMCXvcWO0IUHI8-114" value="Add Step" style="swimlane;fontStyle=1;childLayout=stackLayout;horizontal=1;startSize=30;horizontalStack=0;resizeParent=1;resizeParentMax=0;resizeLast=0;collapsible=1;marginBottom=0;whiteSpace=wrap;html=1;fillColor=#dae8fc;strokeColor=#6c8ebf;fontSize=18;dropTarget=1;resizable=0;rotatable=0;deletable=0;" vertex="1" parent="YqXj83OMCXvcWO0IUHI8-38">
          <mxGeometry x="40" y="170" width="240" height="110" as="geometry" />
        </mxCell>
        <mxCell id="YqXj83OMCXvcWO0IUHI8-115" value="" style="group;allowArrows=0;connectable=0;editable=1;movable=0;resizable=0;rotatable=0;deletable=0;locked=0;movableLabel=0;expand=1;" vertex="1" connectable="0" parent="YqXj83OMCXvcWO0IUHI8-114">
          <mxGeometry y="30" width="240" height="40" as="geometry" />
        </mxCell>
        <mxCell id="YqXj83OMCXvcWO0IUHI8-116" value="" style="rounded=0;whiteSpace=wrap;html=1;fillColor=#f5f5f5;fontColor=#333333;strokeColor=#666666;allowArrows=0;connectable=0;editable=1;movable=0;resizable=0;rotatable=0;deletable=0;locked=0;movableLabel=0;expand=1;" vertex="1" parent="YqXj83OMCXvcWO0IUHI8-115">
          <mxGeometry width="240" height="40" as="geometry" />
        </mxCell>
        <mxCell id="YqXj83OMCXvcWO0IUHI8-117" value="Variable Name" style="text;html=1;align=left;verticalAlign=middle;whiteSpace=wrap;rounded=0;fontSize=14;allowArrows=0;connectable=0;editable=1;movable=0;resizable=0;rotatable=0;deletable=0;locked=0;movableLabel=0;expand=1;" vertex="1" parent="YqXj83OMCXvcWO0IUHI8-115">
          <mxGeometry x="10" y="5" width="100" height="30" as="geometry" />
        </mxCell>
        <mxCell id="YqXj83OMCXvcWO0IUHI8-118" value="TestVar" style="rounded=0;whiteSpace=wrap;html=1;allowArrows=0;connectable=0;editable=0;movable=0;resizable=0;rotatable=0;deletable=0;locked=0;movableLabel=0;expand=1;fillColor=#f5f5f5;fontColor=#333333;strokeColor=#666666;" vertex="1" parent="YqXj83OMCXvcWO0IUHI8-115">
          <mxGeometry x="115" y="5" width="120" height="30" as="geometry" />
        </mxCell>
        <mxCell id="YqXj83OMCXvcWO0IUHI8-119" value="" style="group;allowArrows=0;connectable=0;editable=1;movable=0;resizable=0;rotatable=0;deletable=0;locked=0;movableLabel=0;expand=1;" vertex="1" connectable="0" parent="YqXj83OMCXvcWO0IUHI8-114">
          <mxGeometry y="70" width="240" height="40" as="geometry" />
        </mxCell>
        <mxCell id="YqXj83OMCXvcWO0IUHI8-120" value="" style="rounded=0;whiteSpace=wrap;html=1;fillColor=#f5f5f5;fontColor=#333333;strokeColor=#666666;allowArrows=0;connectable=0;editable=1;movable=0;resizable=0;rotatable=0;deletable=0;locked=0;movableLabel=0;expand=1;" vertex="1" parent="YqXj83OMCXvcWO0IUHI8-119">
          <mxGeometry width="240" height="40" as="geometry" />
        </mxCell>
        <mxCell id="YqXj83OMCXvcWO0IUHI8-121" value="Value to Add" style="text;html=1;align=left;verticalAlign=middle;whiteSpace=wrap;rounded=0;fontSize=14;allowArrows=0;connectable=0;editable=1;movable=0;resizable=0;rotatable=0;deletable=0;locked=0;movableLabel=0;expand=1;" vertex="1" parent="YqXj83OMCXvcWO0IUHI8-119">
          <mxGeometry x="10" y="5" width="100" height="30" as="geometry" />
        </mxCell>
        <mxCell id="YqXj83OMCXvcWO0IUHI8-122" value="1" style="rounded=0;whiteSpace=wrap;html=1;allowArrows=0;connectable=0;editable=0;movable=0;resizable=0;rotatable=0;deletable=0;locked=0;movableLabel=0;expand=1;fillColor=#f5f5f5;fontColor=#333333;strokeColor=#666666;" vertex="1" parent="YqXj83OMCXvcWO0IUHI8-119">
          <mxGeometry x="115" y="5" width="120" height="30" as="geometry" />
        </mxCell>
        <mxCell id="YqXj83OMCXvcWO0IUHI8-83" value="Add Step" style="swimlane;fontStyle=1;childLayout=stackLayout;horizontal=1;startSize=30;horizontalStack=0;resizeParent=1;resizeParentMax=0;resizeLast=0;collapsible=1;marginBottom=0;whiteSpace=wrap;html=1;fillColor=#dae8fc;strokeColor=#6c8ebf;fontSize=18;dropTarget=1;resizable=0;rotatable=0;deletable=0;" vertex="1" parent="YqXj83OMCXvcWO0IUHI8-38">
          <mxGeometry x="40" y="390" width="240" height="110" as="geometry" />
        </mxCell>
        <mxCell id="YqXj83OMCXvcWO0IUHI8-91" value="" style="group;allowArrows=0;connectable=0;editable=1;movable=0;resizable=0;rotatable=0;deletable=0;locked=0;movableLabel=0;expand=1;" vertex="1" connectable="0" parent="YqXj83OMCXvcWO0IUHI8-83">
          <mxGeometry y="30" width="240" height="40" as="geometry" />
        </mxCell>
        <mxCell id="YqXj83OMCXvcWO0IUHI8-92" value="" style="rounded=0;whiteSpace=wrap;html=1;fillColor=#f5f5f5;fontColor=#333333;strokeColor=#666666;allowArrows=0;connectable=0;editable=1;movable=0;resizable=0;rotatable=0;deletable=0;locked=0;movableLabel=0;expand=1;" vertex="1" parent="YqXj83OMCXvcWO0IUHI8-91">
          <mxGeometry width="240" height="40" as="geometry" />
        </mxCell>
        <mxCell id="YqXj83OMCXvcWO0IUHI8-93" value="Variable Name" style="text;html=1;align=left;verticalAlign=middle;whiteSpace=wrap;rounded=0;fontSize=14;allowArrows=0;connectable=0;editable=1;movable=0;resizable=0;rotatable=0;deletable=0;locked=0;movableLabel=0;expand=1;" vertex="1" parent="YqXj83OMCXvcWO0IUHI8-91">
          <mxGeometry x="10" y="5" width="100" height="30" as="geometry" />
        </mxCell>
        <mxCell id="YqXj83OMCXvcWO0IUHI8-94" value="" style="rounded=0;whiteSpace=wrap;html=1;allowArrows=0;connectable=0;editable=1;movable=0;resizable=0;rotatable=0;deletable=0;locked=0;movableLabel=0;expand=1;" vertex="1" parent="YqXj83OMCXvcWO0IUHI8-91">
          <mxGeometry x="115" y="5" width="120" height="30" as="geometry" />
        </mxCell>
        <mxCell id="YqXj83OMCXvcWO0IUHI8-82" value="" style="group;allowArrows=0;connectable=0;editable=1;movable=0;resizable=0;rotatable=0;deletable=0;locked=0;movableLabel=0;expand=1;" vertex="1" connectable="0" parent="YqXj83OMCXvcWO0IUHI8-83">
          <mxGeometry y="70" width="240" height="40" as="geometry" />
        </mxCell>
        <mxCell id="YqXj83OMCXvcWO0IUHI8-78" value="" style="rounded=0;whiteSpace=wrap;html=1;fillColor=#f5f5f5;fontColor=#333333;strokeColor=#666666;allowArrows=0;connectable=0;editable=1;movable=0;resizable=0;rotatable=0;deletable=0;locked=0;movableLabel=0;expand=1;" vertex="1" parent="YqXj83OMCXvcWO0IUHI8-82">
          <mxGeometry width="240" height="40" as="geometry" />
        </mxCell>
        <mxCell id="YqXj83OMCXvcWO0IUHI8-80" value="Value to Add" style="text;html=1;align=left;verticalAlign=middle;whiteSpace=wrap;rounded=0;fontSize=14;allowArrows=0;connectable=0;editable=1;movable=0;resizable=0;rotatable=0;deletable=0;locked=0;movableLabel=0;expand=1;" vertex="1" parent="YqXj83OMCXvcWO0IUHI8-82">
          <mxGeometry x="10" y="5" width="100" height="30" as="geometry" />
        </mxCell>
        <mxCell id="YqXj83OMCXvcWO0IUHI8-81" value="" style="rounded=0;whiteSpace=wrap;html=1;allowArrows=0;connectable=0;editable=1;movable=0;resizable=0;rotatable=0;deletable=0;locked=0;movableLabel=0;expand=1;" vertex="1" parent="YqXj83OMCXvcWO0IUHI8-82">
          <mxGeometry x="115" y="5" width="120" height="30" as="geometry" />
        </mxCell>
        <mxCell id="YqXj83OMCXvcWO0IUHI8-130" value="Create Data" style="swimlane;fontStyle=1;childLayout=stackLayout;horizontal=1;startSize=30;horizontalStack=0;resizeParent=1;resizeParentMax=0;resizeLast=0;collapsible=1;marginBottom=0;whiteSpace=wrap;html=1;fillColor=#dae8fc;strokeColor=#6c8ebf;fontSize=18;dropTarget=1;resizable=0;rotatable=0;deletable=0;" vertex="1" parent="YqXj83OMCXvcWO0IUHI8-38">
          <mxGeometry x="40" y="520" width="240" height="110" as="geometry" />
        </mxCell>
        <mxCell id="YqXj83OMCXvcWO0IUHI8-131" value="" style="group;allowArrows=0;connectable=0;editable=1;movable=0;resizable=0;rotatable=0;deletable=0;locked=0;movableLabel=0;expand=1;" vertex="1" connectable="0" parent="YqXj83OMCXvcWO0IUHI8-130">
          <mxGeometry y="30" width="240" height="40" as="geometry" />
        </mxCell>
        <mxCell id="YqXj83OMCXvcWO0IUHI8-132" value="" style="rounded=0;whiteSpace=wrap;html=1;fillColor=#f5f5f5;fontColor=#333333;strokeColor=#666666;allowArrows=0;connectable=0;editable=1;movable=0;resizable=0;rotatable=0;deletable=0;locked=0;movableLabel=0;expand=1;" vertex="1" parent="YqXj83OMCXvcWO0IUHI8-131">
          <mxGeometry width="240" height="40" as="geometry" />
        </mxCell>
        <mxCell id="YqXj83OMCXvcWO0IUHI8-133" value="Variable Name" style="text;html=1;align=left;verticalAlign=middle;whiteSpace=wrap;rounded=0;fontSize=14;allowArrows=0;connectable=0;editable=1;movable=0;resizable=0;rotatable=0;deletable=0;locked=0;movableLabel=0;expand=1;" vertex="1" parent="YqXj83OMCXvcWO0IUHI8-131">
          <mxGeometry x="10" y="5" width="100" height="30" as="geometry" />
        </mxCell>
        <mxCell id="YqXj83OMCXvcWO0IUHI8-134" value="" style="rounded=0;whiteSpace=wrap;html=1;allowArrows=0;connectable=0;editable=1;movable=0;resizable=0;rotatable=0;deletable=0;locked=0;movableLabel=0;expand=1;" vertex="1" parent="YqXj83OMCXvcWO0IUHI8-131">
          <mxGeometry x="115" y="5" width="120" height="30" as="geometry" />
        </mxCell>
        <mxCell id="YqXj83OMCXvcWO0IUHI8-135" value="" style="group;allowArrows=0;connectable=0;editable=1;movable=0;resizable=0;rotatable=0;deletable=0;locked=0;movableLabel=0;expand=1;" vertex="1" connectable="0" parent="YqXj83OMCXvcWO0IUHI8-130">
          <mxGeometry y="70" width="240" height="40" as="geometry" />
        </mxCell>
        <mxCell id="YqXj83OMCXvcWO0IUHI8-136" value="" style="rounded=0;whiteSpace=wrap;html=1;fillColor=#f5f5f5;fontColor=#333333;strokeColor=#666666;allowArrows=0;connectable=0;editable=1;movable=0;resizable=0;rotatable=0;deletable=0;locked=0;movableLabel=0;expand=1;" vertex="1" parent="YqXj83OMCXvcWO0IUHI8-135">
          <mxGeometry width="240" height="40" as="geometry" />
        </mxCell>
        <mxCell id="YqXj83OMCXvcWO0IUHI8-137" value="Initial Value" style="text;html=1;align=left;verticalAlign=middle;whiteSpace=wrap;rounded=0;fontSize=14;allowArrows=0;connectable=0;editable=1;movable=0;resizable=0;rotatable=0;deletable=0;locked=0;movableLabel=0;expand=1;" vertex="1" parent="YqXj83OMCXvcWO0IUHI8-135">
          <mxGeometry x="10" y="5" width="100" height="30" as="geometry" />
        </mxCell>
        <mxCell id="YqXj83OMCXvcWO0IUHI8-138" value="" style="rounded=0;whiteSpace=wrap;html=1;allowArrows=0;connectable=0;editable=1;movable=0;resizable=0;rotatable=0;deletable=0;locked=0;movableLabel=0;expand=1;" vertex="1" parent="YqXj83OMCXvcWO0IUHI8-135">
          <mxGeometry x="115" y="5" width="120" height="30" as="geometry" />
        </mxCell>
        <mxCell id="YqXj83OMCXvcWO0IUHI8-143" value="&lt;div style=&quot;line-height: 0%;&quot;&gt;Greater Than Or Equal&lt;/div&gt;" style="swimlane;fontStyle=1;childLayout=stackLayout;horizontal=1;startSize=30;horizontalStack=0;resizeParent=1;resizeParentMax=0;resizeLast=0;collapsible=1;marginBottom=0;whiteSpace=wrap;html=1;fillColor=#fff2cc;strokeColor=#d6b656;fontSize=18;dropTarget=1;resizable=0;rotatable=0;deletable=0;" vertex="1" parent="1">
          <mxGeometry x="1662.5" y="290" width="240" height="110" as="geometry" />
        </mxCell>
        <mxCell id="YqXj83OMCXvcWO0IUHI8-144" value="" style="group;allowArrows=0;connectable=0;editable=1;movable=0;resizable=0;rotatable=0;deletable=0;locked=0;movableLabel=0;expand=1;noLabel=0;" vertex="1" connectable="0" parent="YqXj83OMCXvcWO0IUHI8-143">
          <mxGeometry y="30" width="240" height="40" as="geometry" />
        </mxCell>
        <mxCell id="YqXj83OMCXvcWO0IUHI8-145" value="" style="rounded=0;whiteSpace=wrap;html=1;fillColor=#f5f5f5;fontColor=#333333;strokeColor=#666666;allowArrows=0;connectable=0;editable=1;movable=0;resizable=0;rotatable=0;deletable=0;locked=0;movableLabel=0;expand=1;" vertex="1" parent="YqXj83OMCXvcWO0IUHI8-144">
          <mxGeometry width="240" height="40" as="geometry" />
        </mxCell>
        <mxCell id="YqXj83OMCXvcWO0IUHI8-146" value="Value" style="text;html=1;align=left;verticalAlign=middle;whiteSpace=wrap;rounded=0;fontSize=14;allowArrows=0;connectable=0;editable=1;movable=0;resizable=0;rotatable=0;deletable=0;locked=0;movableLabel=0;expand=1;" vertex="1" parent="YqXj83OMCXvcWO0IUHI8-144">
          <mxGeometry x="10" y="5" width="100" height="30" as="geometry" />
        </mxCell>
        <mxCell id="YqXj83OMCXvcWO0IUHI8-147" value="" style="rounded=0;whiteSpace=wrap;html=1;allowArrows=0;connectable=0;editable=1;movable=0;resizable=0;rotatable=0;deletable=0;locked=0;movableLabel=0;expand=1;" vertex="1" parent="YqXj83OMCXvcWO0IUHI8-144">
          <mxGeometry x="115" y="5" width="120" height="30" as="geometry" />
        </mxCell>
        <mxCell id="YqXj83OMCXvcWO0IUHI8-148" value="" style="group;allowArrows=0;connectable=0;editable=1;movable=0;resizable=0;rotatable=0;deletable=0;locked=0;movableLabel=0;expand=1;" vertex="1" connectable="0" parent="YqXj83OMCXvcWO0IUHI8-143">
          <mxGeometry y="70" width="240" height="40" as="geometry" />
        </mxCell>
        <mxCell id="YqXj83OMCXvcWO0IUHI8-149" value="" style="rounded=0;whiteSpace=wrap;html=1;fillColor=#f5f5f5;fontColor=#333333;strokeColor=#666666;allowArrows=0;connectable=0;editable=1;movable=0;resizable=0;rotatable=0;deletable=0;locked=0;movableLabel=0;expand=1;" vertex="1" parent="YqXj83OMCXvcWO0IUHI8-148">
          <mxGeometry width="240" height="40" as="geometry" />
        </mxCell>
        <mxCell id="YqXj83OMCXvcWO0IUHI8-150" value="Value to Compare" style="text;html=1;align=left;verticalAlign=middle;whiteSpace=wrap;rounded=0;fontSize=14;allowArrows=0;connectable=0;editable=1;movable=0;resizable=0;rotatable=0;deletable=0;locked=0;movableLabel=0;expand=1;" vertex="1" parent="YqXj83OMCXvcWO0IUHI8-148">
          <mxGeometry x="10" y="5" width="100" height="30" as="geometry" />
        </mxCell>
        <mxCell id="YqXj83OMCXvcWO0IUHI8-151" value="" style="rounded=0;whiteSpace=wrap;html=1;allowArrows=0;connectable=0;editable=1;movable=0;resizable=0;rotatable=0;deletable=0;locked=0;movableLabel=0;expand=1;" vertex="1" parent="YqXj83OMCXvcWO0IUHI8-148">
          <mxGeometry x="115" y="5" width="120" height="30" as="geometry" />
        </mxCell>
        <mxCell id="YqXj83OMCXvcWO0IUHI8-154" value="Greater Than &#xa;Or Equal" style="rhombus;strokeWidth=2;whiteSpace=wrap;fillColor=#fff2cc;strokeColor=#d6b656;fontSize=18;fontStyle=1;deletable=0;" vertex="1" parent="1">
          <mxGeometry x="1680" y="40" width="205" height="190" as="geometry" />
        </mxCell>
        <mxCell id="YqXj83OMCXvcWO0IUHI8-162" value="" style="group;deletable=0;" vertex="1" connectable="0" parent="1">
          <mxGeometry x="1650" y="40" width="120" height="62" as="geometry" />
        </mxCell>
        <mxCell id="YqXj83OMCXvcWO0IUHI8-159" value="" style="rounded=0;whiteSpace=wrap;html=1;fillColor=#f5f5f5;fontColor=#333333;strokeColor=#666666;deletable=0;" vertex="1" parent="YqXj83OMCXvcWO0IUHI8-162">
          <mxGeometry y="2" width="120" height="60" as="geometry" />
        </mxCell>
        <mxCell id="YqXj83OMCXvcWO0IUHI8-160" value="Value" style="text;html=1;align=center;verticalAlign=middle;whiteSpace=wrap;rounded=0;fontSize=14;deletable=0;" vertex="1" parent="YqXj83OMCXvcWO0IUHI8-162">
          <mxGeometry x="30" width="60" height="30" as="geometry" />
        </mxCell>
        <mxCell id="YqXj83OMCXvcWO0IUHI8-161" value="" style="rounded=0;whiteSpace=wrap;html=1;deletable=0;" vertex="1" parent="YqXj83OMCXvcWO0IUHI8-162">
          <mxGeometry x="10" y="28" width="100" height="30" as="geometry" />
        </mxCell>
        <mxCell id="YqXj83OMCXvcWO0IUHI8-163" value="" style="group;deletable=0;" vertex="1" connectable="0" parent="1">
          <mxGeometry x="1800" y="168" width="120" height="62" as="geometry" />
        </mxCell>
        <mxCell id="YqXj83OMCXvcWO0IUHI8-164" value="" style="rounded=0;whiteSpace=wrap;html=1;fillColor=#f5f5f5;fontColor=#333333;strokeColor=#666666;deletable=0;" vertex="1" parent="YqXj83OMCXvcWO0IUHI8-163">
          <mxGeometry y="2" width="120" height="60" as="geometry" />
        </mxCell>
        <mxCell id="YqXj83OMCXvcWO0IUHI8-165" value="Value to Compare" style="text;html=1;align=center;verticalAlign=middle;whiteSpace=wrap;rounded=0;fontSize=14;deletable=0;" vertex="1" parent="YqXj83OMCXvcWO0IUHI8-163">
          <mxGeometry width="120" height="30" as="geometry" />
        </mxCell>
        <mxCell id="YqXj83OMCXvcWO0IUHI8-166" value="" style="rounded=0;whiteSpace=wrap;html=1;deletable=0;" vertex="1" parent="YqXj83OMCXvcWO0IUHI8-163">
          <mxGeometry x="10" y="28" width="100" height="30" as="geometry" />
        </mxCell>
        <mxCell id="YqXj83OMCXvcWO0IUHI8-208" value="" style="group;deletable=0;" vertex="1" connectable="0" parent="1">
          <mxGeometry x="1662.5" y="480" width="240" height="220" as="geometry" />
        </mxCell>
        <mxCell id="YqXj83OMCXvcWO0IUHI8-207" value="" style="whiteSpace=wrap;html=1;fillColor=#fff2cc;strokeColor=#d6b656;deletable=0;" vertex="1" parent="YqXj83OMCXvcWO0IUHI8-208">
          <mxGeometry width="240" height="220" as="geometry" />
        </mxCell>
        <mxCell id="YqXj83OMCXvcWO0IUHI8-175" value="Greater &#xa;Than Or &#xa;Equal" style="rhombus;strokeWidth=2;whiteSpace=wrap;fontSize=18;fontStyle=1;deletable=0;" vertex="1" parent="YqXj83OMCXvcWO0IUHI8-208">
          <mxGeometry x="50" y="4" width="140" height="130" as="geometry" />
        </mxCell>
        <mxCell id="YqXj83OMCXvcWO0IUHI8-197" value="&lt;div style=&quot;line-height: 0%;&quot;&gt;&lt;br&gt;&lt;/div&gt;" style="swimlane;fontStyle=1;childLayout=stackLayout;horizontal=1;startSize=0;horizontalStack=0;resizeParent=1;resizeParentMax=0;resizeLast=0;collapsible=1;marginBottom=0;whiteSpace=wrap;html=1;fillColor=#fff2cc;strokeColor=none;fontSize=18;dropTarget=1;resizable=0;rotatable=0;deletable=0;swimlaneHead=1;" vertex="1" parent="YqXj83OMCXvcWO0IUHI8-208">
          <mxGeometry y="110" width="240" height="110" as="geometry" />
        </mxCell>
        <mxCell id="YqXj83OMCXvcWO0IUHI8-198" value="" style="group;allowArrows=0;connectable=0;editable=1;movable=0;resizable=0;rotatable=0;deletable=0;locked=0;movableLabel=0;expand=1;noLabel=0;" vertex="1" connectable="0" parent="YqXj83OMCXvcWO0IUHI8-197">
          <mxGeometry y="30" width="240" height="40" as="geometry" />
        </mxCell>
        <mxCell id="YqXj83OMCXvcWO0IUHI8-199" value="" style="rounded=0;whiteSpace=wrap;html=1;fillColor=#f5f5f5;fontColor=#333333;strokeColor=#666666;allowArrows=0;connectable=0;editable=1;movable=0;resizable=0;rotatable=0;deletable=0;locked=0;movableLabel=0;expand=1;" vertex="1" parent="YqXj83OMCXvcWO0IUHI8-198">
          <mxGeometry width="240" height="40" as="geometry" />
        </mxCell>
        <mxCell id="YqXj83OMCXvcWO0IUHI8-200" value="Value" style="text;html=1;align=left;verticalAlign=middle;whiteSpace=wrap;rounded=0;fontSize=14;allowArrows=0;connectable=0;editable=1;movable=0;resizable=0;rotatable=0;deletable=0;locked=0;movableLabel=0;expand=1;" vertex="1" parent="YqXj83OMCXvcWO0IUHI8-198">
          <mxGeometry x="10" y="5" width="100" height="30" as="geometry" />
        </mxCell>
        <mxCell id="YqXj83OMCXvcWO0IUHI8-201" value="" style="rounded=0;whiteSpace=wrap;html=1;allowArrows=0;connectable=0;editable=1;movable=0;resizable=0;rotatable=0;deletable=0;locked=0;movableLabel=0;expand=1;" vertex="1" parent="YqXj83OMCXvcWO0IUHI8-198">
          <mxGeometry x="115" y="5" width="120" height="30" as="geometry" />
        </mxCell>
        <mxCell id="YqXj83OMCXvcWO0IUHI8-202" value="" style="group;allowArrows=0;connectable=0;editable=1;movable=0;resizable=0;rotatable=0;deletable=0;locked=0;movableLabel=0;expand=1;" vertex="1" connectable="0" parent="YqXj83OMCXvcWO0IUHI8-197">
          <mxGeometry y="70" width="240" height="40" as="geometry" />
        </mxCell>
        <mxCell id="YqXj83OMCXvcWO0IUHI8-203" value="" style="rounded=0;whiteSpace=wrap;html=1;fillColor=#f5f5f5;fontColor=#333333;strokeColor=#666666;allowArrows=0;connectable=0;editable=1;movable=0;resizable=0;rotatable=0;deletable=0;locked=0;movableLabel=0;expand=1;" vertex="1" parent="YqXj83OMCXvcWO0IUHI8-202">
          <mxGeometry width="240" height="40" as="geometry" />
        </mxCell>
        <mxCell id="YqXj83OMCXvcWO0IUHI8-204" value="Value to Compare" style="text;html=1;align=left;verticalAlign=middle;whiteSpace=wrap;rounded=0;fontSize=14;allowArrows=0;connectable=0;editable=1;movable=0;resizable=0;rotatable=0;deletable=0;locked=0;movableLabel=0;expand=1;" vertex="1" parent="YqXj83OMCXvcWO0IUHI8-202">
          <mxGeometry x="10" y="5" width="100" height="30" as="geometry" />
        </mxCell>
        <mxCell id="YqXj83OMCXvcWO0IUHI8-205" value="" style="rounded=0;whiteSpace=wrap;html=1;allowArrows=0;connectable=0;editable=1;movable=0;resizable=0;rotatable=0;deletable=0;locked=0;movableLabel=0;expand=1;" vertex="1" parent="YqXj83OMCXvcWO0IUHI8-202">
          <mxGeometry x="115" y="5" width="120" height="30" as="geometry" />
        </mxCell>
        <mxCell id="YqXj83OMCXvcWO0IUHI8-209" style="edgeStyle=orthogonalEdgeStyle;rounded=0;orthogonalLoop=1;jettySize=auto;html=1;exitX=1;exitY=0.5;exitDx=0;exitDy=0;deletable=0;entryX=0;entryY=0.5;entryDx=0;entryDy=0;" edge="1" parent="1" source="YqXj83OMCXvcWO0IUHI8-210" target="YqXj83OMCXvcWO0IUHI8-214">
          <mxGeometry relative="1" as="geometry">
            <mxPoint x="1455" y="364.55555555555543" as="targetPoint" />
          </mxGeometry>
        </mxCell>
        <mxCell id="YqXj83OMCXvcWO0IUHI8-210" value="Start" style="whiteSpace=wrap;strokeWidth=2;fillColor=#d5e8d4;strokeColor=#82b366;movable=1;resizable=1;rotatable=1;deletable=0;editable=1;locked=0;connectable=1;" vertex="1" parent="1">
          <mxGeometry x="380" y="568" width="95" height="54" as="geometry" />
        </mxCell>
        <mxCell id="YqXj83OMCXvcWO0IUHI8-211" value="End" style="whiteSpace=wrap;strokeWidth=2;fillColor=#f8cecc;strokeColor=#b85450;movable=1;resizable=1;rotatable=1;deletable=0;editable=1;locked=0;connectable=1;" vertex="1" parent="1">
          <mxGeometry x="1435" y="718" width="86" height="54" as="geometry" />
        </mxCell>
        <mxCell id="YqXj83OMCXvcWO0IUHI8-283" style="edgeStyle=orthogonalEdgeStyle;rounded=0;orthogonalLoop=1;jettySize=auto;html=1;entryX=0.5;entryY=0;entryDx=0;entryDy=0;exitX=0.5;exitY=0;exitDx=0;exitDy=0;" edge="1" parent="1" source="YqXj83OMCXvcWO0IUHI8-250" target="YqXj83OMCXvcWO0IUHI8-223">
          <mxGeometry relative="1" as="geometry" />
        </mxCell>
        <mxCell id="YqXj83OMCXvcWO0IUHI8-284" value="FALSE" style="edgeLabel;html=1;align=center;verticalAlign=middle;resizable=0;points=[];" vertex="1" connectable="0" parent="YqXj83OMCXvcWO0IUHI8-283">
          <mxGeometry x="-0.1921" y="1" relative="1" as="geometry">
            <mxPoint as="offset" />
          </mxGeometry>
        </mxCell>
        <mxCell id="YqXj83OMCXvcWO0IUHI8-285" style="edgeStyle=orthogonalEdgeStyle;rounded=0;orthogonalLoop=1;jettySize=auto;html=1;entryX=0;entryY=0.5;entryDx=0;entryDy=0;" edge="1" parent="1" source="YqXj83OMCXvcWO0IUHI8-250" target="YqXj83OMCXvcWO0IUHI8-211">
          <mxGeometry relative="1" as="geometry" />
        </mxCell>
        <mxCell id="YqXj83OMCXvcWO0IUHI8-286" value="TRUE" style="edgeLabel;html=1;align=center;verticalAlign=middle;resizable=0;points=[];" vertex="1" connectable="0" parent="YqXj83OMCXvcWO0IUHI8-285">
          <mxGeometry x="0.2772" y="1" relative="1" as="geometry">
            <mxPoint as="offset" />
          </mxGeometry>
        </mxCell>
        <mxCell id="YqXj83OMCXvcWO0IUHI8-250" value="&lt;div style=&quot;line-height: 0%;&quot;&gt;Greater Than Or Equal&lt;/div&gt;" style="swimlane;fontStyle=1;childLayout=stackLayout;horizontal=1;startSize=30;horizontalStack=0;resizeParent=1;resizeParentMax=0;resizeLast=0;collapsible=1;marginBottom=0;whiteSpace=wrap;html=1;fillColor=#fff2cc;strokeColor=#d6b656;fontSize=18;dropTarget=1;resizable=0;rotatable=0;deletable=0;" vertex="1" parent="1">
          <mxGeometry x="1225" y="540" width="240" height="110" as="geometry" />
        </mxCell>
        <mxCell id="YqXj83OMCXvcWO0IUHI8-251" value="" style="group;allowArrows=0;connectable=0;editable=1;movable=0;resizable=0;rotatable=0;deletable=0;locked=0;movableLabel=0;expand=1;noLabel=0;" vertex="1" connectable="0" parent="YqXj83OMCXvcWO0IUHI8-250">
          <mxGeometry y="30" width="240" height="40" as="geometry" />
        </mxCell>
        <mxCell id="YqXj83OMCXvcWO0IUHI8-252" value="" style="rounded=0;whiteSpace=wrap;html=1;fillColor=#f5f5f5;fontColor=#333333;strokeColor=#666666;allowArrows=0;connectable=0;editable=1;movable=0;resizable=0;rotatable=0;deletable=0;locked=0;movableLabel=0;expand=1;" vertex="1" parent="YqXj83OMCXvcWO0IUHI8-251">
          <mxGeometry width="240" height="40" as="geometry" />
        </mxCell>
        <mxCell id="YqXj83OMCXvcWO0IUHI8-253" value="Value" style="text;html=1;align=left;verticalAlign=middle;whiteSpace=wrap;rounded=0;fontSize=14;allowArrows=0;connectable=0;editable=1;movable=0;resizable=0;rotatable=0;deletable=0;locked=0;movableLabel=0;expand=1;" vertex="1" parent="YqXj83OMCXvcWO0IUHI8-251">
          <mxGeometry x="10" y="5" width="100" height="30" as="geometry" />
        </mxCell>
        <mxCell id="YqXj83OMCXvcWO0IUHI8-254" value="TestVar" style="rounded=0;whiteSpace=wrap;html=1;allowArrows=0;connectable=0;editable=1;movable=0;resizable=0;rotatable=0;deletable=0;locked=0;movableLabel=0;expand=1;" vertex="1" parent="YqXj83OMCXvcWO0IUHI8-251">
          <mxGeometry x="115" y="5" width="120" height="30" as="geometry" />
        </mxCell>
        <mxCell id="YqXj83OMCXvcWO0IUHI8-255" value="" style="group;allowArrows=0;connectable=0;editable=1;movable=0;resizable=0;rotatable=0;deletable=0;locked=0;movableLabel=0;expand=1;" vertex="1" connectable="0" parent="YqXj83OMCXvcWO0IUHI8-250">
          <mxGeometry y="70" width="240" height="40" as="geometry" />
        </mxCell>
        <mxCell id="YqXj83OMCXvcWO0IUHI8-256" value="" style="rounded=0;whiteSpace=wrap;html=1;fillColor=#f5f5f5;fontColor=#333333;strokeColor=#666666;allowArrows=0;connectable=0;editable=1;movable=0;resizable=0;rotatable=0;deletable=0;locked=0;movableLabel=0;expand=1;" vertex="1" parent="YqXj83OMCXvcWO0IUHI8-255">
          <mxGeometry width="240" height="40" as="geometry" />
        </mxCell>
        <mxCell id="YqXj83OMCXvcWO0IUHI8-257" value="Value to Compare" style="text;html=1;align=left;verticalAlign=middle;whiteSpace=wrap;rounded=0;fontSize=14;allowArrows=0;connectable=0;editable=1;movable=0;resizable=0;rotatable=0;deletable=0;locked=0;movableLabel=0;expand=1;" vertex="1" parent="YqXj83OMCXvcWO0IUHI8-255">
          <mxGeometry x="10" y="5" width="100" height="30" as="geometry" />
        </mxCell>
        <mxCell id="YqXj83OMCXvcWO0IUHI8-258" value="3" style="rounded=0;whiteSpace=wrap;html=1;allowArrows=0;connectable=0;editable=1;movable=0;resizable=0;rotatable=0;deletable=0;locked=0;movableLabel=0;expand=1;" vertex="1" parent="YqXj83OMCXvcWO0IUHI8-255">
          <mxGeometry x="115" y="5" width="120" height="30" as="geometry" />
        </mxCell>
        <mxCell id="YqXj83OMCXvcWO0IUHI8-281" style="edgeStyle=orthogonalEdgeStyle;rounded=0;orthogonalLoop=1;jettySize=auto;html=1;" edge="1" parent="1" source="YqXj83OMCXvcWO0IUHI8-214">
          <mxGeometry relative="1" as="geometry">
            <mxPoint x="905" y="595" as="targetPoint" />
          </mxGeometry>
        </mxCell>
        <mxCell id="YqXj83OMCXvcWO0IUHI8-214" value="Create Data" style="swimlane;fontStyle=1;childLayout=stackLayout;horizontal=1;startSize=30;horizontalStack=0;resizeParent=1;resizeParentMax=0;resizeLast=0;collapsible=1;marginBottom=0;whiteSpace=wrap;html=1;fillColor=#dae8fc;strokeColor=#6c8ebf;fontSize=18;dropTarget=1;resizable=0;rotatable=0;deletable=0;" vertex="1" parent="1">
          <mxGeometry x="585" y="540" width="240" height="110" as="geometry" />
        </mxCell>
        <mxCell id="YqXj83OMCXvcWO0IUHI8-215" value="" style="group;allowArrows=0;connectable=0;editable=1;movable=0;resizable=0;rotatable=0;deletable=0;locked=0;movableLabel=0;expand=1;" vertex="1" connectable="0" parent="YqXj83OMCXvcWO0IUHI8-214">
          <mxGeometry y="30" width="240" height="40" as="geometry" />
        </mxCell>
        <mxCell id="YqXj83OMCXvcWO0IUHI8-216" value="" style="rounded=0;whiteSpace=wrap;html=1;fillColor=#f5f5f5;fontColor=#333333;strokeColor=#666666;allowArrows=0;connectable=0;editable=1;movable=0;resizable=0;rotatable=0;deletable=0;locked=0;movableLabel=0;expand=1;" vertex="1" parent="YqXj83OMCXvcWO0IUHI8-215">
          <mxGeometry width="240" height="40" as="geometry" />
        </mxCell>
        <mxCell id="YqXj83OMCXvcWO0IUHI8-217" value="Variable Name" style="text;html=1;align=left;verticalAlign=middle;whiteSpace=wrap;rounded=0;fontSize=14;allowArrows=0;connectable=0;editable=1;movable=0;resizable=0;rotatable=0;deletable=0;locked=0;movableLabel=0;expand=1;" vertex="1" parent="YqXj83OMCXvcWO0IUHI8-215">
          <mxGeometry x="10" y="5" width="100" height="30" as="geometry" />
        </mxCell>
        <mxCell id="YqXj83OMCXvcWO0IUHI8-218" value="TestVar" style="rounded=0;whiteSpace=wrap;html=1;allowArrows=0;connectable=0;editable=0;movable=0;resizable=0;rotatable=0;deletable=0;locked=0;movableLabel=0;expand=1;fillColor=#f5f5f5;fontColor=#333333;strokeColor=#666666;" vertex="1" parent="YqXj83OMCXvcWO0IUHI8-215">
          <mxGeometry x="115" y="5" width="120" height="30" as="geometry" />
        </mxCell>
        <mxCell id="YqXj83OMCXvcWO0IUHI8-219" value="" style="group;allowArrows=0;connectable=0;editable=1;movable=0;resizable=0;rotatable=0;deletable=0;locked=0;movableLabel=0;expand=1;fillColor=#f5f5f5;fontColor=#333333;strokeColor=#666666;" vertex="1" connectable="0" parent="YqXj83OMCXvcWO0IUHI8-214">
          <mxGeometry y="70" width="240" height="40" as="geometry" />
        </mxCell>
        <mxCell id="YqXj83OMCXvcWO0IUHI8-220" value="" style="rounded=0;whiteSpace=wrap;html=1;fillColor=#f5f5f5;fontColor=#333333;strokeColor=#666666;allowArrows=0;connectable=0;editable=1;movable=0;resizable=0;rotatable=0;deletable=0;locked=0;movableLabel=0;expand=1;" vertex="1" parent="YqXj83OMCXvcWO0IUHI8-219">
          <mxGeometry width="240" height="40" as="geometry" />
        </mxCell>
        <mxCell id="YqXj83OMCXvcWO0IUHI8-221" value="Initial Value" style="text;html=1;align=left;verticalAlign=middle;whiteSpace=wrap;rounded=0;fontSize=14;allowArrows=0;connectable=0;editable=1;movable=0;resizable=0;rotatable=0;deletable=0;locked=0;movableLabel=0;expand=1;" vertex="1" parent="YqXj83OMCXvcWO0IUHI8-219">
          <mxGeometry x="10" y="5" width="100" height="30" as="geometry" />
        </mxCell>
        <mxCell id="YqXj83OMCXvcWO0IUHI8-222" value="0" style="rounded=0;whiteSpace=wrap;html=1;allowArrows=0;connectable=0;editable=0;movable=0;resizable=0;rotatable=0;deletable=0;locked=0;movableLabel=0;expand=1;fillColor=#f5f5f5;fontColor=#333333;strokeColor=#666666;" vertex="1" parent="YqXj83OMCXvcWO0IUHI8-219">
          <mxGeometry x="115" y="5" width="120" height="30" as="geometry" />
        </mxCell>
        <mxCell id="YqXj83OMCXvcWO0IUHI8-282" style="edgeStyle=orthogonalEdgeStyle;rounded=0;orthogonalLoop=1;jettySize=auto;html=1;exitX=1;exitY=0.5;exitDx=0;exitDy=0;entryX=0;entryY=0.5;entryDx=0;entryDy=0;" edge="1" parent="1" source="YqXj83OMCXvcWO0IUHI8-223" target="YqXj83OMCXvcWO0IUHI8-250">
          <mxGeometry relative="1" as="geometry" />
        </mxCell>
        <mxCell id="YqXj83OMCXvcWO0IUHI8-223" value="Add Step" style="swimlane;fontStyle=1;childLayout=stackLayout;horizontal=1;startSize=30;horizontalStack=0;resizeParent=1;resizeParentMax=0;resizeLast=0;collapsible=1;marginBottom=0;whiteSpace=wrap;html=1;fillColor=#dae8fc;strokeColor=#6c8ebf;fontSize=18;dropTarget=1;resizable=0;rotatable=0;deletable=0;" vertex="1" parent="1">
          <mxGeometry x="905" y="540" width="240" height="110" as="geometry" />
        </mxCell>
        <mxCell id="YqXj83OMCXvcWO0IUHI8-224" value="" style="group;allowArrows=0;connectable=0;editable=1;movable=0;resizable=0;rotatable=0;deletable=0;locked=0;movableLabel=0;expand=1;" vertex="1" connectable="0" parent="YqXj83OMCXvcWO0IUHI8-223">
          <mxGeometry y="30" width="240" height="40" as="geometry" />
        </mxCell>
        <mxCell id="YqXj83OMCXvcWO0IUHI8-225" value="" style="rounded=0;whiteSpace=wrap;html=1;fillColor=#f5f5f5;fontColor=#333333;strokeColor=#666666;allowArrows=0;connectable=0;editable=1;movable=0;resizable=0;rotatable=0;deletable=0;locked=0;movableLabel=0;expand=1;" vertex="1" parent="YqXj83OMCXvcWO0IUHI8-224">
          <mxGeometry width="240" height="40" as="geometry" />
        </mxCell>
        <mxCell id="YqXj83OMCXvcWO0IUHI8-226" value="Variable Name" style="text;html=1;align=left;verticalAlign=middle;whiteSpace=wrap;rounded=0;fontSize=14;allowArrows=0;connectable=0;editable=1;movable=0;resizable=0;rotatable=0;deletable=0;locked=0;movableLabel=0;expand=1;" vertex="1" parent="YqXj83OMCXvcWO0IUHI8-224">
          <mxGeometry x="10" y="5" width="100" height="30" as="geometry" />
        </mxCell>
        <mxCell id="YqXj83OMCXvcWO0IUHI8-227" value="TestVar" style="rounded=0;whiteSpace=wrap;html=1;allowArrows=0;connectable=0;editable=0;movable=0;resizable=0;rotatable=0;deletable=0;locked=0;movableLabel=0;expand=1;fillColor=#f5f5f5;fontColor=#333333;strokeColor=#666666;" vertex="1" parent="YqXj83OMCXvcWO0IUHI8-224">
          <mxGeometry x="115" y="5" width="120" height="30" as="geometry" />
        </mxCell>
        <mxCell id="YqXj83OMCXvcWO0IUHI8-228" value="" style="group;allowArrows=0;connectable=0;editable=1;movable=0;resizable=0;rotatable=0;deletable=0;locked=0;movableLabel=0;expand=1;" vertex="1" connectable="0" parent="YqXj83OMCXvcWO0IUHI8-223">
          <mxGeometry y="70" width="240" height="40" as="geometry" />
        </mxCell>
        <mxCell id="YqXj83OMCXvcWO0IUHI8-229" value="" style="rounded=0;whiteSpace=wrap;html=1;fillColor=#f5f5f5;fontColor=#333333;strokeColor=#666666;allowArrows=0;connectable=0;editable=1;movable=0;resizable=0;rotatable=0;deletable=0;locked=0;movableLabel=0;expand=1;" vertex="1" parent="YqXj83OMCXvcWO0IUHI8-228">
          <mxGeometry width="240" height="40" as="geometry" />
        </mxCell>
        <mxCell id="YqXj83OMCXvcWO0IUHI8-230" value="Value to Add" style="text;html=1;align=left;verticalAlign=middle;whiteSpace=wrap;rounded=0;fontSize=14;allowArrows=0;connectable=0;editable=1;movable=0;resizable=0;rotatable=0;deletable=0;locked=0;movableLabel=0;expand=1;" vertex="1" parent="YqXj83OMCXvcWO0IUHI8-228">
          <mxGeometry x="10" y="5" width="100" height="30" as="geometry" />
        </mxCell>
        <mxCell id="YqXj83OMCXvcWO0IUHI8-231" value="1" style="rounded=0;whiteSpace=wrap;html=1;allowArrows=0;connectable=0;editable=0;movable=0;resizable=0;rotatable=0;deletable=0;locked=0;movableLabel=0;expand=1;fillColor=#f5f5f5;fontColor=#333333;strokeColor=#666666;" vertex="1" parent="YqXj83OMCXvcWO0IUHI8-228">
          <mxGeometry x="115" y="5" width="120" height="30" as="geometry" />
        </mxCell>
        <mxCell id="YqXj83OMCXvcWO0IUHI8-26" value="Add Step" style="" parent="0" />
        <mxCell id="YqXj83OMCXvcWO0IUHI8-36" value="Set Variable" parent="0" />
      </root>
    </mxGraphModel>
  </diagram>
</mxfile>
